{
  "accessors": [
    {
      "bufferView": 3,
      "componentType": 5126,
      "count": 1250,
      "max": [
        4.0462207794189453,
        4.2949962615966797,
        7.6414499282836914
      ],
      "min": [
        2.6780071258544922,
        2.8910231590270996,
        6.6836066246032715
      ],
      "type": "VEC3"
    },
    {
      "bufferView": 3,
      "byteOffset": 15000,
      "componentType": 5126,
      "count": 1250,
      "max": [
        0.7921375036239624,
        0.79189234972000122,
        0.86316108703613281
      ],
      "min": [
        -0.79208064079284668,
        -0.7919805645942688,
        -0.86316108703613281
      ],
      "type": "VEC3"
    },
    {
      "bufferView": 1,
      "componentType": 5125,
      "count": 1884,
      "max": [
        1249
      ],
      "min": [
        0
      ],
      "type": "SCALAR"
    },
    {
      "bufferView": 3,
      "byteOffset": 30000,
      "componentType": 5126,
      "count": 3271,
      "max": [
        2.9171392917633057,
        2.8211245536804199,
        7.3202395439147949
      ],
      "min": [
        -4.4530291557312012,
        -4.5524559020996094,
        6.1598043441772461
      ],
      "type": "VEC3"
    },
    {
      "bufferView": 3,
      "byteOffset": 69252,
      "componentType": 5126,
      "count": 3271,
      "max": [
        1,
        0.79212796688079834,
        1
      ],
      "min": [
        -1,
        -0.79203599691390991,
        -1
      ],
      "type": "VEC3"
    },
    {
      "bufferView": 1,
      "byteOffset": 7536,
      "componentType": 5125,
      "count": 5064,
      "max": [
        3270
      ],
      "min": [
        0
      ],
      "type": "SCALAR"
    },
    {
      "bufferView": 3,
      "byteOffset": 108504,
      "componentType": 5126,
      "count": 70,
      "max": [
        286.736083984375,
        301.54177856445312,
        286.73602294921875
      ],
      "min": [
        -286.736083984375,
        -301.54177856445312,
        -286.73614501953125
      ],
      "type": "VEC3"
    },
    {
      "bufferView": 3,
      "byteOffset": 109344,
      "componentType": 5126,
      "count": 70,
      "max": [
        6.5815481775644002e-07,
        0.56271648406982422,
        1
      ],
      "min": [
        -4.53258849120175e-07,
        -2.4782357854746806e-07,
        -1
      ],
      "type": "VEC3"
    },
    {
      "bufferView": 4,
      "componentType": 5126,
      "count": 70,
      "max": [
        0.4505690336227417,
        1,
        0.50236034393310547,
        1
      ],
      "min": [
        -0.45056933164596558,
        -1,
        -0.50236070156097412,
        -1
      ],
      "type": "VEC4"
    },
    {
      "bufferView": 2,
      "componentType": 5126,
      "count": 70,
      "max": [
        0.875,
        0.75000005960464478
      ],
      "min": [
        0.125,
        0.25
      ],
      "type": "VEC2"
    },
    {
      "bufferView": 1,
      "byteOffset": 27792,
      "componentType": 5125,
      "count": 108,
      "max": [
        69
      ],
      "min": [
        0
      ],
      "type": "SCALAR"
    },
    {
      "bufferView": 3,
      "byteOffset": 110184,
      "componentType": 5126,
      "count": 32,
      "max": [
        286.736083984375,
        301.54177856445312,
        286.73602294921875
      ],
      "min": [
        -286.736083984375,
        -301.54177856445312,
        -286.73614501953125
      ],
      "type": "VEC3"
    },
    {
      "bufferView": 3,
      "byteOffset": 110568,
      "componentType": 5126,
      "count": 32,
      "max": [
        4.2422263391017623e-07,
        1,
        3.237564101254975e-07
      ],
      "min": [
        -3.5279589383208076e-07,
        -1,
        -5.8276162917536567e-07
      ],
      "type": "VEC3"
    },
    {
      "bufferView": 4,
      "byteOffset": 1120,
      "componentType": 5126,
      "count": 32,
      "max": [
        1,
        2.590053327367059e-07,
        1,
        1
      ],
      "min": [
        -1,
        -5.8276168601878453e-07,
        -1,
        1
      ],
      "type": "VEC4"
    },
    {
      "bufferView": 2,
      "byteOffset": 560,
      "componentType": 5126,
      "count": 32,
      "max": [
        0.625,
        1
      ],
      "min": [
        0.375,
        0
      ],
      "type": "VEC2"
    },
    {
      "bufferView": 1,
      "byteOffset": 28224,
      "componentType": 5125,
      "count": 48,
      "max": [
        31
      ],
      "min": [
        0
      ],
      "type": "SCALAR"
    },
    {
      "bufferView": 3,
      "byteOffset": 110952,
      "componentType": 5126,
      "count": 62,
      "max": [
        286.736083984375,
        301.54177856445312,
        286.73602294921875
      ],
      "min": [
        -286.736083984375,
        -301.54177856445312,
        -286.73614501953125
      ],
      "type": "VEC3"
    },
    {
      "bufferView": 3,
      "byteOffset": 111696,
      "componentType": 5126,
      "count": 62,
      "max": [
        1,
        3.0297803732537432e-07,
        8.1029259035858558e-07
      ],
      "min": [
        -1,
        -0.56271654367446899,
        -6.8714933831870439e-07
      ],
      "type": "VEC3"
    },
    {
      "bufferView": 4,
      "byteOffset": 1632,
      "componentType": 5126,
      "count": 62,
      "max": [
        0.56271606683731079,
        1,
        0.71040946245193481,
        1
      ],
      "min": [
        -0.56271666288375854,
        -1,
        -0.71040922403335571,
        1
      ],
      "type": "VEC4"
    },
    {
      "bufferView": 2,
      "byteOffset": 816,
      "componentType": 5126,
      "count": 62,
      "max": [
        0.875,
        0.75
      ],
      "min": [
        0.125,
        0
      ],
      "type": "VEC2"
    },
    {
      "bufferView": 1,
      "byteOffset": 28416,
      "componentType": 5125,
      "count": 108,
      "max": [
        61
      ],
      "min": [
        0
      ],
      "type": "SCALAR"
    },
    {
      "bufferView": 3,
      "byteOffset": 112440,
      "componentType": 5126,
      "count": 16,
      "max": [
        286.73602294921875,
        301.541748046875,
        286.7359619140625
      ],
      "min": [
        -286.73605346679688,
        -301.541748046875,
        -286.73605346679688
      ],
      "type": "VEC3"
    },
    {
      "bufferView": 3,
      "byteOffset": 112632,
      "componentType": 5126,
      "count": 16,
      "max": [
        0.82664990425109863,
        0.56271642446517944,
        0.82665008306503296
      ],
      "min": [
        -0.82664990425109863,
        -0.56271642446517944,
        -0.82664990425109863
      ],
      "type": "VEC3"
    },
    {
      "bufferView": 4,
      "byteOffset": 2624,
      "componentType": 5126,
      "count": 16,
      "max": [
        0.71040910482406616,
        0.73798477649688721,
        0.56271654367446899,
        1
      ],
      "min": [
        -0.71040922403335571,
        -0.82665008306503296,
        -0.56271630525588989,
        -1
      ],
      "type": "VEC4"
    },
    {
      "bufferView": 2,
      "byteOffset": 1312,
      "componentType": 5126,
      "count": 16,
      "max": [
        0.875,
        0.75
      ],
      "min": [
        0.26171875,
        0
      ],
      "type": "VEC2"
    },
    {
      "bufferView": 1,
      "byteOffset": 28848,
      "componentType": 5125,
      "count": 24,
      "max": [
        15
      ],
      "min": [
        0
      ],
      "type": "SCALAR"
    },
    {
      "bufferView": 5,
      "componentType": 5126,
      "count": 3,
      "max": [
        1,
        0,
        0,
        0,
        0,
        1,
        0,
        0,
        0,
        0,
        1,
        0,
        0,
        0,
        0,
        1
      ],
      "min": [
        0.0099999997764825821,
        0,
        0,
        0,
        0,
        0.0099999997764825821,
        0,
        0,
        0,
        0,
        0.0099999997764825821,
        0,
        0,
        0,
        0,
        1
      ],
      "type": "MAT4"
    },
    {
      "bufferView": 0,
      "componentType": 5123,
      "count": 70,
      "max": [
        1,
        1,
        1,
        1
      ],
      "min": [
        1,
        1,
        1,
        1
      ],
      "type": "VEC4"
    },
    {
      "bufferView": 4,
      "byteOffset": 2880,
      "componentType": 5126,
      "count": 70,
      "max": [
        1,
        0,
        0,
        0
      ],
      "min": [
        1,
        0,
        0,
        0
      ],
      "type": "VEC4"
    },
    {
      "bufferView": 0,
      "byteOffset": 560,
      "componentType": 5123,
      "count": 32,
      "max": [
        1,
        1,
        1,
        1
      ],
      "min": [
        1,
        1,
        1,
        1
      ],
      "type": "VEC4"
    },
    {
      "bufferView": 4,
      "byteOffset": 4000,
      "componentType": 5126,
      "count": 32,
      "max": [
        1,
        0,
        0,
        0
      ],
      "min": [
        1,
        0,
        0,
        0
      ],
      "type": "VEC4"
    },
    {
      "bufferView": 0,
      "byteOffset": 816,
      "componentType": 5123,
      "count": 62,
      "max": [
        1,
        1,
        1,
        1
      ],
      "min": [
        1,
        1,
        1,
        1
      ],
      "type": "VEC4"
    },
    {
      "bufferView": 4,
      "byteOffset": 4512,
      "componentType": 5126,
      "count": 62,
      "max": [
        1,
        0,
        0,
        0
      ],
      "min": [
        1,
        0,
        0,
        0
      ],
      "type": "VEC4"
    },
    {
      "bufferView": 0,
      "byteOffset": 1312,
      "componentType": 5123,
      "count": 16,
      "max": [
        1,
        1,
        1,
        1
      ],
      "min": [
        1,
        1,
        1,
        1
      ],
      "type": "VEC4"
    },
    {
      "bufferView": 4,
      "byteOffset": 5504,
      "componentType": 5126,
      "count": 16,
      "max": [
        1,
        0,
        0,
        0
      ],
      "min": [
        1,
        0,
        0,
        0
      ],
      "type": "VEC4"
    },
    {
      "bufferView": 6,
      "componentType": 5126,
      "count": 250,
      "max": [
        4.1666665077209473
      ],
      "min": [
        0.01666666753590107
      ],
      "type": "SCALAR"
    },
    {
      "bufferView": 7,
      "componentType": 5126,
      "count": 250,
      "max": [
        0.70901435613632202,
        0.70789045095443726,
        0.70630848407745361,
        0.70631986856460571
      ],
      "min": [
        -0.49635881185531616,
        -0.49843055009841919,
        -0.49731877446174622,
        -0.49524712562561035
      ],
      "type": "VEC4"
    }
  ],
  "animations": [
    {
      "channels": [
        {
          "sampler": 0,
          "target": {
            "node": 17,
            "path": "rotation"
          }
        }
      ],
      "name": "Scene",
      "samplers": [
        {
          "input": 35,
          "interpolation": "LINEAR",
          "output": 36
        }
      ]
    }
  ],
  "asset": {
    "extras": {
      "author": "Zero One Designs (https://sketchfab.com/slimjim3k)",
      "license": "CC-BY-4.0 (http://creativecommons.org/licenses/by/4.0/)",
      "source": "https://sketchfab.com/3d-models/n64-logo-7d14245cdd9d460c887c2a1fef97a77f",
      "title": "N64 Logo"
    },
    "generator": "Sketchfab-5.70.0",
    "version": "2.0"
  },
  "bufferViews": [
    {
      "buffer": 0,
      "byteLength": 1440,
      "byteOffset": 0,
      "byteStride": 8,
      "name": "shortBufferViews",
      "target": 34962
    },
    {
      "buffer": 0,
      "byteLength": 28944,
      "byteOffset": 1440,
      "name": "floatBufferViews",
      "target": 34963
    },
    {
      "buffer": 0,
      "byteLength": 1440,
      "byteOffset": 30384,
      "byteStride": 8,
      "name": "floatBufferViews",
      "target": 34962
    },
    {
      "buffer": 0,
      "byteLength": 112824,
      "byteOffset": 31824,
      "byteStride": 12,
      "name": "floatBufferViews",
      "target": 34962
    },
    {
      "buffer": 0,
      "byteLength": 5760,
      "byteOffset": 144648,
      "byteStride": 16,
      "name": "floatBufferViews",
      "target": 34962
    },
    {
      "buffer": 0,
      "byteLength": 192,
      "byteOffset": 150408,
      "byteStride": 64,
      "name": "floatBufferViews"
    },
    {
      "buffer": 0,
      "byteLength": 1000,
      "byteOffset": 150600,
      "name": "floatBufferViews"
    },
    {
      "buffer": 0,
      "byteLength": 4000,
      "byteOffset": 151600,
      "byteStride": 16,
      "name": "floatBufferViews"
    }
  ],
  "buffers": [
    {
      "byteLength": 155600,
      "uri": "scene.bin"
    }
  ],
  "materials": [
    {
      "doubleSided": false,
      "name": "N64_Red",
      "pbrMetallicRoughness": {
        "baseColorFactor": [
          0.99110200000000004,
          0.0144438,
          0.0074990300000000003,
          1
        ],
        "metallicFactor": 0,
        "roughnessFactor": 1
      }
    },
    {
      "doubleSided": false,
      "name": "N64_Blue",
      "pbrMetallicRoughness": {
        "baseColorFactor": [
          0.000303527,
          0.012286500000000001,
          0.39675500000000002,
          1
        ],
        "metallicFactor": 0,
        "roughnessFactor": 1
      }
    },
    {
      "doubleSided": false,
      "name": "N64_Green",
      "pbrMetallicRoughness": {
        "baseColorFactor": [
          0.0015176300000000001,
          0.291771,
          0.029556800000000001,
          1
        ],
        "metallicFactor": 0,
        "roughnessFactor": 1
      }
    },
    {
      "doubleSided": false,
      "name": "N64_Yellow",
      "pbrMetallicRoughness": {
        "baseColorFactor": [
          1,
          0.527115,
          0,
          1
        ],
        "metallicFactor": 0,
        "roughnessFactor": 1
      }
    }
  ],
  "meshes": [
    {
      "name": "Curve.005_N64 Red_0",
      "primitives": [
        {
          "attributes": {
            "NORMAL": 1,
            "POSITION": 0
          },
          "indices": 2,
          "material": 0,
          "mode": 4
        }
      ]
    },
    {
      "name": "Curve.005_N64 Blue_0",
      "primitives": [
        {
          "attributes": {
            "NORMAL": 4,
            "POSITION": 3
          },
          "indices": 5,
          "material": 1,
          "mode": 4
        }
      ]
    },
    {
      "name": "Cube.003_N64 Green_0",
      "primitives": [
        {
          "attributes": {
            "JOINTS_0": 27,
            "NORMAL": 7,
            "POSITION": 6,
            "TANGENT": 8,
            "TEXCOORD_0": 9,
            "WEIGHTS_0": 28
          },
          "indices": 10,
          "material": 2,
          "mode": 4
        }
      ]
    },
    {
      "name": "Cube.003_N64 Yellow_0",
      "primitives": [
        {
          "attributes": {
            "JOINTS_0": 29,
            "NORMAL": 12,
            "POSITION": 11,
            "TANGENT": 13,
            "TEXCOORD_0": 14,
            "WEIGHTS_0": 30
          },
          "indices": 15,
          "material": 3,
          "mode": 4
        }
      ]
    },
    {
      "name": "Cube.003_N64 Blue_0",
      "primitives": [
        {
          "attributes": {
            "JOINTS_0": 31,
            "NORMAL": 17,
            "POSITION": 16,
            "TANGENT": 18,
            "TEXCOORD_0": 19,
            "WEIGHTS_0": 32
          },
          "indices": 20,
          "material": 1,
          "mode": 4
        }
      ]
    },
    {
      "name": "Cube.003_N64 Red_0",
      "primitives": [
        {
          "attributes": {
            "JOINTS_0": 33,
            "NORMAL": 22,
            "POSITION": 21,
            "TANGENT": 23,
            "TEXCOORD_0": 24,
            "WEIGHTS_0": 34
          },
          "indices": 25,
          "material": 0,
          "mode": 4
        }
      ]
    }
  ],
  "nodes": [
    {
      "children": [
        1
      ],
      "name": "RootNode (gltf orientation matrix)",
      "rotation": [
        -0.70710678118654746,
        -0,
        -0,
        0.70710678118654757
      ]
    },
    {
      "children": [
        2
      ],
      "name": "RootNode (model correction matrix)"
    },
    {
      "children": [
        3
      ],
      "matrix": [
        1,
        0,
        0,
        0,
        0,
        0,
        1,
        0,
        0,
        -1,
        0,
        0,
        0,
        0,
        0,
        1
      ],
      "name": "7d0536f9ebbf452ba81abc1f3aaaf51e.fbx"
    },
    {
      "children": [
        4
      ],
      "name": ""
    },
    {
      "children": [
        5,
        6,
        9
      ],
      "name": "RootNode"
    },
    {
      "name": "Cube.003",
      "rotation": [
        -0.7071068286895752,
        0,
        0,
        0.70710670948028564
      ],
      "scale": [
        100,
        100,
        100
      ]
    },
    {
      "children": [
        7,
        8
      ],
      "name": "Curve.005",
      "rotation": [
        -0.7071068286895752,
        0,
        0,
        0.70710670948028564
      ],
      "scale": [
        100,
        100,
        100
      ]
    },
    {
      "mesh": 0,
      "name": "Curve.005_N64 Red_0"
    },
    {
      "mesh": 1,
      "name": "Curve.005_N64 Blue_0"
    },
    {
      "children": [
        10
      ],
      "name": "Armature",
      "rotation": [
        -0.7071068286895752,
        0,
        0,
        0.70710670948028564
      ],
      "scale": [
        100,
        100,
        100
      ]
    },
    {
      "children": [
        11,
        13,
        14,
        15,
        16,
        12
      ],
      "name": ""
    },
    {
      "children": [
        17
      ],
      "name": "_rootJoint"
    },
    {
      "matrix": [
        100,
        0,
        0,
        0,
        0,
        6.1232339957367661e-15,
        -100,
        0,
        0,
        100,
        6.1232339957367661e-15,
        0,
        0,
        0,
        0,
        1
      ],
      "name": ""
    },
    {
      "mesh": 2,
      "name": "",
      "skin": 0
    },
    {
      "mesh": 3,
      "name": "",
      "skin": 0
    },
    {
      "mesh": 4,
      "name": "",
      "skin": 0
    },
    {
      "mesh": 5,
      "name": "",
      "skin": 0
    },
    {
      "children": [
        18
      ],
      "name": "Bone_00",
      "rotation": [
        0.71015846729278564,
        2.6924632038571872e-05,
        0.0061705335974693298,
        0.70401483774185181
      ],
      "scale": [
        1,
        1,
        0.99999994039535522
      ]
    },
    {
      "name": "Bone_end_01",
      "rotation": [
        -2.4685381367268038e-37,
        8.6736173798840355e-19,
        2.8460307027744491e-19,
        1
      ],
      "translation": [
        5.6920614055488983e-19,
        1,
        0
      ]
    }
  ],
  "scene": 0,
  "scenes": [
    {
      "name": "OSG_Scene",
      "nodes": [
        0
      ]
    }
  ],
  "skins": [
    {
      "inverseBindMatrices": 26,
      "joints": [
        11,
        17,
        18
      ],
      "skeleton": 11
    }
  ]
}

